<svg width="158" height="159" viewBox="0 0 158 159" fill="none" xmlns="http://www.w3.org/2000/svg">
<g filter="url(#filter0_d_29_8)">
<ellipse cx="79" cy="75.5" rx="75" ry="75.5" fill="#5720CE"/>
</g>
<path d="M49.2 42H73.2V54H54L53.7 54.6L69.7 83.8C72.9667 89.6667 74.6 94.1333 74.6 97.2C74.6 103.933 72.3667 108.867 67.9 112H41.4V100.4H62.1L62.4 99.8L44.4 67.5C41.8 62.8333 40.5 59.0333 40.5 56.1C40.5 49.1667 43.4 44.4667 49.2 42ZM81.5695 112V42H118.07V54H95.2695V71.5H115.07V83.1H95.2695V112H81.5695Z" fill="white"/>
<defs>
<filter id="filter0_d_29_8" x="0" y="0" width="158" height="159" filterUnits="userSpaceOnUse" color-interpolation-filters="sRGB">
<feFlood flood-opacity="0" result="BackgroundImageFix"/>
<feColorMatrix in="SourceAlpha" type="matrix" values="0 0 0 0 0 0 0 0 0 0 0 0 0 0 0 0 0 0 127 0" result="hardAlpha"/>
<feOffset dy="4"/>
<feGaussianBlur stdDeviation="2"/>
<feComposite in2="hardAlpha" operator="out"/>
<feColorMatrix type="matrix" values="0 0 0 0 0 0 0 0 0 0 0 0 0 0 0 0 0 0 0.25 0"/>
<feBlend mode="normal" in2="BackgroundImageFix" result="effect1_dropShadow_29_8"/>
<feBlend mode="normal" in="SourceGraphic" in2="effect1_dropShadow_29_8" result="shape"/>
</filter>
</defs>
</svg>
